<mxfile host="app.diagrams.net" agent="Mozilla/5.0 (Windows NT 10.0; Win64; x64) AppleWebKit/537.36 (KHTML, like Gecko) Chrome/126.0.0.0 Safari/537.36" version="24.7.4">
  <diagram id="R2lEEEUBdFMjLlhIrx00" name="Page-1">
    <mxGraphModel dx="1409" dy="1656" grid="1" gridSize="10" guides="1" tooltips="1" connect="1" arrows="1" fold="1" page="1" pageScale="1" pageWidth="850" pageHeight="1100" math="0" shadow="0" extFonts="Permanent Marker^https://fonts.googleapis.com/css?family=Permanent+Marker">
      <root>
        <mxCell id="0" />
        <mxCell id="1" parent="0" />
        <mxCell id="DjDxD-5Fi2WuVD2VH1XU-1" value="&lt;b&gt;Admin&lt;/b&gt;" style="rounded=0;whiteSpace=wrap;html=1;" parent="1" vertex="1">
          <mxGeometry x="160" y="-792" width="90" height="40" as="geometry" />
        </mxCell>
        <mxCell id="DjDxD-5Fi2WuVD2VH1XU-2" value="&lt;b&gt;Client&lt;/b&gt;" style="rounded=1;whiteSpace=wrap;html=1;" parent="1" vertex="1">
          <mxGeometry x="600" y="-980" width="70" height="30" as="geometry" />
        </mxCell>
        <mxCell id="DjDxD-5Fi2WuVD2VH1XU-3" value="Provider" style="rounded=1;whiteSpace=wrap;html=1;" parent="1" vertex="1">
          <mxGeometry x="610" y="-623" width="90" height="40" as="geometry" />
        </mxCell>
        <mxCell id="DjDxD-5Fi2WuVD2VH1XU-4" value="AdminID" style="ellipse;whiteSpace=wrap;html=1;" parent="1" vertex="1">
          <mxGeometry x="90" y="-902" width="90" height="60" as="geometry" />
        </mxCell>
        <mxCell id="DjDxD-5Fi2WuVD2VH1XU-5" value="Password" style="ellipse;whiteSpace=wrap;html=1;" parent="1" vertex="1">
          <mxGeometry x="10" y="-797" width="100" height="50" as="geometry" />
        </mxCell>
        <mxCell id="DjDxD-5Fi2WuVD2VH1XU-6" value="Username" style="ellipse;whiteSpace=wrap;html=1;" parent="1" vertex="1">
          <mxGeometry x="70" y="-682" width="110" height="50" as="geometry" />
        </mxCell>
        <mxCell id="DjDxD-5Fi2WuVD2VH1XU-7" value="ClientID" style="ellipse;whiteSpace=wrap;html=1;" parent="1" vertex="1">
          <mxGeometry x="482.5" y="-1030" width="80" height="40" as="geometry" />
        </mxCell>
        <mxCell id="DjDxD-5Fi2WuVD2VH1XU-8" value="Username" style="ellipse;whiteSpace=wrap;html=1;" parent="1" vertex="1">
          <mxGeometry x="586" y="-1060" width="90" height="40" as="geometry" />
        </mxCell>
        <mxCell id="DjDxD-5Fi2WuVD2VH1XU-9" value="Password" style="ellipse;whiteSpace=wrap;html=1;" parent="1" vertex="1">
          <mxGeometry x="487.5" y="-930" width="85" height="40" as="geometry" />
        </mxCell>
        <mxCell id="DjDxD-5Fi2WuVD2VH1XU-11" value="Address" style="ellipse;whiteSpace=wrap;html=1;" parent="1" vertex="1">
          <mxGeometry x="710" y="-980" width="70" height="40" as="geometry" />
        </mxCell>
        <mxCell id="DjDxD-5Fi2WuVD2VH1XU-46" style="edgeStyle=orthogonalEdgeStyle;rounded=0;orthogonalLoop=1;jettySize=auto;html=1;exitX=1;exitY=0;exitDx=0;exitDy=0;" parent="1" source="DjDxD-5Fi2WuVD2VH1XU-12" edge="1">
          <mxGeometry relative="1" as="geometry">
            <mxPoint x="698" y="-903" as="targetPoint" />
          </mxGeometry>
        </mxCell>
        <mxCell id="DjDxD-5Fi2WuVD2VH1XU-12" value="Income" style="ellipse;whiteSpace=wrap;html=1;" parent="1" vertex="1">
          <mxGeometry x="662.5" y="-920" width="80" height="40" as="geometry" />
        </mxCell>
        <mxCell id="DjDxD-5Fi2WuVD2VH1XU-13" value="ProviderID" style="ellipse;whiteSpace=wrap;html=1;" parent="1" vertex="1">
          <mxGeometry x="715" y="-690" width="90" height="40" as="geometry" />
        </mxCell>
        <mxCell id="DjDxD-5Fi2WuVD2VH1XU-14" value="Password" style="ellipse;whiteSpace=wrap;html=1;" parent="1" vertex="1">
          <mxGeometry x="470" y="-682" width="105" height="40" as="geometry" />
        </mxCell>
        <mxCell id="DjDxD-5Fi2WuVD2VH1XU-16" value="Address" style="ellipse;whiteSpace=wrap;html=1;" parent="1" vertex="1">
          <mxGeometry x="620" y="-530" width="90" height="40" as="geometry" />
        </mxCell>
        <mxCell id="DjDxD-5Fi2WuVD2VH1XU-17" value="Username" style="ellipse;whiteSpace=wrap;html=1;" parent="1" vertex="1">
          <mxGeometry x="750" y="-590" width="90" height="40" as="geometry" />
        </mxCell>
        <mxCell id="DjDxD-5Fi2WuVD2VH1XU-23" value="Mobile" style="ellipse;shape=doubleEllipse;margin=3;whiteSpace=wrap;html=1;align=center;" parent="1" vertex="1">
          <mxGeometry x="472.5" y="-583" width="100" height="40" as="geometry" />
        </mxCell>
        <mxCell id="DjDxD-5Fi2WuVD2VH1XU-24" value="Mobile" style="ellipse;shape=doubleEllipse;margin=3;whiteSpace=wrap;html=1;align=center;" parent="1" vertex="1">
          <mxGeometry x="695" y="-1040" width="100" height="40" as="geometry" />
        </mxCell>
        <mxCell id="DjDxD-5Fi2WuVD2VH1XU-29" value="" style="endArrow=none;html=1;rounded=0;entryX=0.5;entryY=1;entryDx=0;entryDy=0;exitX=0.25;exitY=0;exitDx=0;exitDy=0;" parent="1" source="DjDxD-5Fi2WuVD2VH1XU-1" target="DjDxD-5Fi2WuVD2VH1XU-4" edge="1">
          <mxGeometry relative="1" as="geometry">
            <mxPoint x="210" y="-722" as="sourcePoint" />
            <mxPoint x="370" y="-722" as="targetPoint" />
          </mxGeometry>
        </mxCell>
        <mxCell id="DjDxD-5Fi2WuVD2VH1XU-30" value="" style="endArrow=none;html=1;rounded=0;exitX=0.5;exitY=0;exitDx=0;exitDy=0;entryX=0.25;entryY=1;entryDx=0;entryDy=0;" parent="1" source="DjDxD-5Fi2WuVD2VH1XU-6" target="DjDxD-5Fi2WuVD2VH1XU-1" edge="1">
          <mxGeometry relative="1" as="geometry">
            <mxPoint x="210" y="-722" as="sourcePoint" />
            <mxPoint x="370" y="-722" as="targetPoint" />
          </mxGeometry>
        </mxCell>
        <mxCell id="DjDxD-5Fi2WuVD2VH1XU-31" value="" style="endArrow=none;html=1;rounded=0;exitX=1;exitY=0.5;exitDx=0;exitDy=0;entryX=0;entryY=0.5;entryDx=0;entryDy=0;" parent="1" source="DjDxD-5Fi2WuVD2VH1XU-5" target="DjDxD-5Fi2WuVD2VH1XU-1" edge="1">
          <mxGeometry relative="1" as="geometry">
            <mxPoint x="210" y="-722" as="sourcePoint" />
            <mxPoint x="370" y="-722" as="targetPoint" />
          </mxGeometry>
        </mxCell>
        <mxCell id="DjDxD-5Fi2WuVD2VH1XU-34" value="" style="endArrow=none;html=1;rounded=0;entryX=1;entryY=0;entryDx=0;entryDy=0;exitX=0;exitY=1;exitDx=0;exitDy=0;" parent="1" source="DjDxD-5Fi2WuVD2VH1XU-2" target="DjDxD-5Fi2WuVD2VH1XU-9" edge="1">
          <mxGeometry relative="1" as="geometry">
            <mxPoint x="590" y="-980" as="sourcePoint" />
            <mxPoint x="750" y="-980" as="targetPoint" />
          </mxGeometry>
        </mxCell>
        <mxCell id="DjDxD-5Fi2WuVD2VH1XU-35" value="" style="endArrow=none;html=1;rounded=0;exitX=0;exitY=0;exitDx=0;exitDy=0;entryX=1;entryY=1;entryDx=0;entryDy=0;" parent="1" source="DjDxD-5Fi2WuVD2VH1XU-2" target="DjDxD-5Fi2WuVD2VH1XU-7" edge="1">
          <mxGeometry relative="1" as="geometry">
            <mxPoint x="596" y="-965" as="sourcePoint" />
            <mxPoint x="550" y="-1020" as="targetPoint" />
          </mxGeometry>
        </mxCell>
        <mxCell id="DjDxD-5Fi2WuVD2VH1XU-36" value="" style="endArrow=none;html=1;rounded=0;entryX=0.5;entryY=0;entryDx=0;entryDy=0;exitX=1;exitY=1;exitDx=0;exitDy=0;" parent="1" source="DjDxD-5Fi2WuVD2VH1XU-2" target="DjDxD-5Fi2WuVD2VH1XU-12" edge="1">
          <mxGeometry relative="1" as="geometry">
            <mxPoint x="630" y="-940" as="sourcePoint" />
            <mxPoint x="750" y="-980" as="targetPoint" />
          </mxGeometry>
        </mxCell>
        <mxCell id="DjDxD-5Fi2WuVD2VH1XU-37" value="" style="endArrow=none;html=1;rounded=0;entryX=0.023;entryY=0.3;entryDx=0;entryDy=0;entryPerimeter=0;exitX=1;exitY=0.5;exitDx=0;exitDy=0;" parent="1" source="DjDxD-5Fi2WuVD2VH1XU-2" target="DjDxD-5Fi2WuVD2VH1XU-11" edge="1">
          <mxGeometry relative="1" as="geometry">
            <mxPoint x="680" y="-960" as="sourcePoint" />
            <mxPoint x="750" y="-980" as="targetPoint" />
          </mxGeometry>
        </mxCell>
        <mxCell id="DjDxD-5Fi2WuVD2VH1XU-38" value="" style="endArrow=none;html=1;rounded=0;entryX=0.072;entryY=0.831;entryDx=0;entryDy=0;entryPerimeter=0;exitX=1;exitY=0;exitDx=0;exitDy=0;" parent="1" source="DjDxD-5Fi2WuVD2VH1XU-2" target="DjDxD-5Fi2WuVD2VH1XU-24" edge="1">
          <mxGeometry relative="1" as="geometry">
            <mxPoint x="640" y="-980" as="sourcePoint" />
            <mxPoint x="750" y="-980" as="targetPoint" />
          </mxGeometry>
        </mxCell>
        <mxCell id="DjDxD-5Fi2WuVD2VH1XU-39" value="" style="endArrow=none;html=1;rounded=0;exitX=0.5;exitY=1;exitDx=0;exitDy=0;" parent="1" source="DjDxD-5Fi2WuVD2VH1XU-8" edge="1">
          <mxGeometry relative="1" as="geometry">
            <mxPoint x="590" y="-980" as="sourcePoint" />
            <mxPoint x="630" y="-980" as="targetPoint" />
          </mxGeometry>
        </mxCell>
        <mxCell id="DjDxD-5Fi2WuVD2VH1XU-40" value="" style="endArrow=none;html=1;rounded=0;exitX=1;exitY=0;exitDx=0;exitDy=0;entryX=0.5;entryY=1;entryDx=0;entryDy=0;" parent="1" source="DjDxD-5Fi2WuVD2VH1XU-3" target="DjDxD-5Fi2WuVD2VH1XU-13" edge="1">
          <mxGeometry relative="1" as="geometry">
            <mxPoint x="653" y="-623" as="sourcePoint" />
            <mxPoint x="659" y="-673.1600000000003" as="targetPoint" />
          </mxGeometry>
        </mxCell>
        <mxCell id="DjDxD-5Fi2WuVD2VH1XU-41" value="" style="endArrow=none;html=1;rounded=0;exitX=1;exitY=1;exitDx=0;exitDy=0;entryX=0;entryY=0.5;entryDx=0;entryDy=0;" parent="1" source="DjDxD-5Fi2WuVD2VH1XU-3" target="DjDxD-5Fi2WuVD2VH1XU-17" edge="1">
          <mxGeometry relative="1" as="geometry">
            <mxPoint x="690" y="-633" as="sourcePoint" />
            <mxPoint x="850" y="-633" as="targetPoint" />
          </mxGeometry>
        </mxCell>
        <mxCell id="DjDxD-5Fi2WuVD2VH1XU-42" value="" style="endArrow=none;html=1;rounded=0;exitX=0.5;exitY=1;exitDx=0;exitDy=0;entryX=0.41;entryY=0.004;entryDx=0;entryDy=0;entryPerimeter=0;" parent="1" source="DjDxD-5Fi2WuVD2VH1XU-3" target="DjDxD-5Fi2WuVD2VH1XU-16" edge="1">
          <mxGeometry relative="1" as="geometry">
            <mxPoint x="690" y="-633" as="sourcePoint" />
            <mxPoint x="850" y="-633" as="targetPoint" />
          </mxGeometry>
        </mxCell>
        <mxCell id="DjDxD-5Fi2WuVD2VH1XU-43" value="" style="endArrow=none;html=1;rounded=0;exitX=1;exitY=0.5;exitDx=0;exitDy=0;entryX=0;entryY=1;entryDx=0;entryDy=0;" parent="1" source="DjDxD-5Fi2WuVD2VH1XU-23" target="DjDxD-5Fi2WuVD2VH1XU-3" edge="1">
          <mxGeometry relative="1" as="geometry">
            <mxPoint x="690" y="-633" as="sourcePoint" />
            <mxPoint x="850" y="-633" as="targetPoint" />
          </mxGeometry>
        </mxCell>
        <mxCell id="DjDxD-5Fi2WuVD2VH1XU-44" value="" style="endArrow=none;html=1;rounded=0;exitX=1;exitY=1;exitDx=0;exitDy=0;entryX=0;entryY=0;entryDx=0;entryDy=0;" parent="1" source="DjDxD-5Fi2WuVD2VH1XU-14" target="DjDxD-5Fi2WuVD2VH1XU-3" edge="1">
          <mxGeometry relative="1" as="geometry">
            <mxPoint x="690" y="-633" as="sourcePoint" />
            <mxPoint x="850" y="-633" as="targetPoint" />
          </mxGeometry>
        </mxCell>
        <mxCell id="DjDxD-5Fi2WuVD2VH1XU-48" value="" style="endArrow=none;html=1;rounded=0;exitX=0.5;exitY=1;exitDx=0;exitDy=0;entryX=0.25;entryY=0;entryDx=0;entryDy=0;" parent="1" source="DjDxD-5Fi2WuVD2VH1XU-51" target="DjDxD-5Fi2WuVD2VH1XU-3" edge="1">
          <mxGeometry relative="1" as="geometry">
            <mxPoint x="623" y="-753" as="sourcePoint" />
            <mxPoint x="850" y="-793" as="targetPoint" />
          </mxGeometry>
        </mxCell>
        <mxCell id="DjDxD-5Fi2WuVD2VH1XU-49" value="" style="endArrow=none;html=1;rounded=0;exitX=0.5;exitY=0;exitDx=0;exitDy=0;entryX=0.25;entryY=1;entryDx=0;entryDy=0;" parent="1" source="DjDxD-5Fi2WuVD2VH1XU-51" target="DjDxD-5Fi2WuVD2VH1XU-2" edge="1">
          <mxGeometry relative="1" as="geometry">
            <mxPoint x="623" y="-813" as="sourcePoint" />
            <mxPoint x="840" y="-893" as="targetPoint" />
          </mxGeometry>
        </mxCell>
        <mxCell id="DjDxD-5Fi2WuVD2VH1XU-50" value="Manage User Access" style="shape=rhombus;perimeter=rhombusPerimeter;whiteSpace=wrap;html=1;align=center;" parent="1" vertex="1">
          <mxGeometry x="310" y="-810" width="170" height="67" as="geometry" />
        </mxCell>
        <mxCell id="DjDxD-5Fi2WuVD2VH1XU-51" value="Buy Loans" style="shape=rhombus;perimeter=rhombusPerimeter;whiteSpace=wrap;html=1;align=center;" parent="1" vertex="1">
          <mxGeometry x="560" y="-810" width="120" height="60" as="geometry" />
        </mxCell>
        <mxCell id="DjDxD-5Fi2WuVD2VH1XU-52" value="" style="endArrow=none;html=1;rounded=0;exitX=1;exitY=0.5;exitDx=0;exitDy=0;entryX=0;entryY=0.5;entryDx=0;entryDy=0;" parent="1" source="DjDxD-5Fi2WuVD2VH1XU-1" target="DjDxD-5Fi2WuVD2VH1XU-50" edge="1">
          <mxGeometry relative="1" as="geometry">
            <mxPoint x="190" y="-830" as="sourcePoint" />
            <mxPoint x="350" y="-830" as="targetPoint" />
          </mxGeometry>
        </mxCell>
        <mxCell id="DjDxD-5Fi2WuVD2VH1XU-53" value="" style="endArrow=none;html=1;rounded=0;entryX=0;entryY=0.5;entryDx=0;entryDy=0;exitX=1;exitY=0.5;exitDx=0;exitDy=0;" parent="1" source="DjDxD-5Fi2WuVD2VH1XU-50" target="DjDxD-5Fi2WuVD2VH1XU-51" edge="1">
          <mxGeometry relative="1" as="geometry">
            <mxPoint x="190" y="-830" as="sourcePoint" />
            <mxPoint x="350" y="-830" as="targetPoint" />
          </mxGeometry>
        </mxCell>
      </root>
    </mxGraphModel>
  </diagram>
</mxfile>
